<svg width="24" height="24" viewBox="0 0 24 24" fill="none" xmlns="http://www.w3.org/2000/svg">
<path d="M10.45 15.5C10.8667 15.9167 11.3917 16.1127 12.025 16.088C12.6583 16.0633 13.1167 15.834 13.4 15.4L19 7L10.6 12.6C10.1667 12.9 9.92933 13.3543 9.888 13.963C9.84667 14.5717 10.034 15.084 10.45 15.5ZM5.1 20C4.73333 20 4.396 19.921 4.088 19.763C3.78 19.605 3.534 19.3673 3.35 19.05C2.91667 18.2667 2.58333 17.4543 2.35 16.613C2.11667 15.7717 2 14.9007 2 14C2 12.6167 2.26267 11.3167 2.788 10.1C3.31333 8.88333 4.02567 7.825 4.925 6.925C5.825 6.025 6.88333 5.31267 8.1 4.788C9.31667 4.26333 10.6167 4.00067 12 4C13.3667 4 14.65 4.25833 15.85 4.775C17.05 5.29167 18.1 5.996 19 6.888C19.9 7.77933 20.6167 8.821 21.15 10.013C21.6833 11.205 21.9583 12.484 21.975 13.85C21.9917 14.7667 21.8873 15.6627 21.662 16.538C21.4367 17.4133 21.091 18.2507 20.625 19.05C20.4417 19.3667 20.1957 19.6043 19.887 19.763C19.5783 19.9217 19.241 20.0007 18.875 20H5.1Z" fill="#87300E"/>
</svg>
