<svg width="24" height="20" viewBox="0 0 24 20" fill="none" xmlns="http://www.w3.org/2000/svg">
<g clip-path="url(#clip0_21_1674)">
<path d="M23.1 0H15.9C15.4056 0 14.7132 0.2868 14.364 0.636L5.4372 9.5628C5.26887 9.73191 5.17438 9.9608 5.17438 10.1994C5.17438 10.438 5.26887 10.6669 5.4372 10.836L13.164 18.5628C13.3331 18.7311 13.562 18.8256 13.8006 18.8256C14.0392 18.8256 14.2681 18.7311 14.4372 18.5628L23.364 9.636C23.7144 9.2856 24 8.5944 24 8.1V0.9C23.9994 0.6615 23.9043 0.432949 23.7357 0.264304C23.567 0.0956581 23.3385 0.00063347 23.1 0ZM18.6 7.2C18.3635 7.19992 18.1294 7.15327 17.911 7.06271C17.6926 6.97215 17.4941 6.83945 17.327 6.67219C17.1598 6.50494 17.0272 6.30639 16.9368 6.08791C16.8464 5.86942 16.7999 5.63526 16.8 5.3988C16.8001 5.16234 16.8467 4.92822 16.9373 4.70979C17.0279 4.49136 17.1605 4.2929 17.3278 4.12576C17.4951 3.95861 17.6936 3.82605 17.9121 3.73563C18.1306 3.64522 18.3647 3.59872 18.6012 3.5988C19.0787 3.59896 19.5367 3.78882 19.8742 4.12661C20.2118 4.4644 20.4014 4.92245 20.4012 5.4C20.401 5.87755 20.2112 6.33548 19.8734 6.67304C19.5356 7.01061 19.0775 7.20016 18.6 7.2Z" fill="#87300E"/>
<path d="M2.40001 10.2L12.6 0H11.1C10.6056 0 9.91321 0.2868 9.56401 0.636L0.637207 9.5628C0.468886 9.73191 0.37439 9.9608 0.37439 10.1994C0.37439 10.438 0.468886 10.6669 0.637207 10.836L8.36401 18.5628C8.53312 18.7311 8.76201 18.8256 9.00061 18.8256C9.23921 18.8256 9.4681 18.7311 9.63721 18.5628L10.2012 17.9988L2.40121 10.1988L2.40001 10.2Z" fill="#87300E"/>
</g>
<defs>
<clipPath id="clip0_21_1674">
<rect width="24" height="19.2" fill="white"/>
</clipPath>
</defs>
</svg>
